<svg xmlns="http://www.w3.org/2000/svg" width="480" height="480" fill="none" viewBox="0 0 480 480"><g clip-path="url(#clip0_653_282)"><path fill="#2B9CDC" d="M248.023 204.951C249.062 206.249 249.793 208.697 247.708 213.734C240.982 229.988 236.84 245.173 236.561 266.944C236.361 282.546 238.146 301.468 242.28 326.544C243.858 336.115 245.778 346.583 248.06 358.105C249.306 364.394 255.41 368.468 261.685 367.225C267.961 365.981 272.051 359.888 270.805 353.6C267.269 335.75 264.662 320.717 262.874 307.822C260.664 291.892 259.702 279.225 259.775 268.542C259.905 249.433 263.347 236.588 269.134 222.612C273.913 211.063 273.281 199.406 266.129 190.471L266.128 190.469C257.514 179.719 241.418 175.476 225.716 178.203L225.693 178.207L225.669 178.211C210.92 180.913 197.625 189.614 192.875 201.844L192.873 201.848C189.288 211.102 191.152 220.827 197.457 228.97L197.459 228.971C201.388 234.043 208.66 234.938 213.716 231.04L213.726 231.033C218.788 227.11 219.707 219.827 215.789 214.768C214 212.456 214.11 211.206 214.489 210.225C215.048 208.79 216.654 206.828 219.552 204.951C222.36 203.133 225.939 201.694 229.69 201.037C233.841 200.314 237.91 200.483 241.268 201.316C244.71 202.17 246.937 203.594 248.021 204.95L248.023 204.951Z"/><path fill="#2B9CDC" d="M302.702 424.764L302.737 424.757L302.772 424.75C304.732 424.354 305.572 424.83 306.167 425.501C307.469 426.971 308.016 429.722 307.376 431.58C307.078 432.432 306.566 433.184 304.384 433.616L244.364 445.507C238.088 446.75 233.999 452.843 235.245 459.132C236.491 465.42 242.594 469.494 248.87 468.251L309.206 456.298C318.714 454.415 326.147 448.221 329.284 439.184L329.286 439.179C332.663 429.419 330.364 417.847 323.514 410.126C317.404 403.241 308.615 400.294 299.474 401.78C296.405 401.781 292.896 402.326 288.895 403.177C284.626 404.085 279.453 405.419 273.201 407.053C256.301 411.464 224.846 417.67 222.067 412.499C219.288 407.328 226.488 407.015 226.488 407.015C254.206 402.864 275.442 398.989 291.659 394.824C307.842 390.667 319.45 386.122 327.595 380.419C335.977 374.552 340.567 367.545 342.823 359.026C344.988 350.852 344.951 341.418 344.62 330.866L344.619 330.811C343.981 310.418 343.123 282.955 359.888 241.783C381.501 193.685 383.89 155.01 377.506 124.941C371.128 94.9016 356.096 73.9186 343.636 60.9958C298.707 14.3991 219.764 -0.113096 155.745 25.9294C95.1901 50.546 60.8629 105.638 61.2406 176.594L61.2415 176.75L61.2517 176.905C64.4819 226.013 95.3862 258.428 123.862 288.296L124.311 288.767C149.601 315.298 172.07 339.098 178.561 371.862C180.315 380.718 185.914 382.231 192.188 380.992C198.462 379.753 202.55 373.663 201.318 367.387L201.317 367.383C201.117 366.369 200.905 365.362 200.68 364.363C192.123 326.29 165.848 298.731 141.534 273.231L141.1 272.776C112.462 242.729 87.1131 215.882 84.417 175.934C84.2326 133.907 96.8452 104.932 113.008 84.9536C129.26 64.8645 149.362 53.5579 164.478 47.4099C220.32 24.7073 288.73 37.4631 326.947 77.0962C364.382 115.924 361.346 180.14 337.084 234.102C312.823 288.063 321.446 331.592 321.446 331.592C321.72 340.354 321.868 346.44 320.622 351.388C319.499 355.85 317.197 359.473 311.811 362.922C306.128 366.561 297.086 369.947 282.561 373.405C268.122 376.843 248.712 380.255 222.603 384.158L222.481 384.176L222.361 384.2C216.275 385.409 211.029 388.55 207.152 392.833C201.582 398.986 198.835 407.497 200.475 416.028C201.322 422.956 204.741 428.827 210.414 432.716C218.87 438.509 230.713 438.812 242.311 437.415C254.057 436.001 267.009 432.629 278.767 429.568L279.073 429.488C283.512 428.325 288.142 427.115 292.064 426.226C294.026 425.781 295.741 425.433 297.122 425.213C297.812 425.103 298.375 425.032 298.816 424.994C299.034 424.976 299.203 424.967 299.328 424.964C299.381 424.963 299.421 424.963 299.449 424.964C299.483 424.964 299.501 424.965 299.501 424.965L299.557 424.97L299.613 424.973C300.698 425.035 301.719 424.948 302.702 424.764Z"/></g><defs><clipPath id="clip0_653_282"><rect width="480" height="480" fill="#fff"/></clipPath></defs></svg>