<svg xmlns="http://www.w3.org/2000/svg" width="512" height="512" fill="none" viewBox="0 0 512 512"><path fill="#2B9CDC" fill-rule="evenodd" d="M256.264 110.002H252.736C252.595 110.004 252.403 110.007 252.161 110.014C251.677 110.027 250.995 110.053 250.131 110.102C248.404 110.2 245.949 110.393 242.907 110.773C236.832 111.531 228.374 113.04 218.689 116.047C199.33 122.06 174.826 134.146 154.826 158.412C112.91 209.271 126.673 268.105 127.218 270.356L127.22 270.363L127.225 270.385L127.303 270.679L127.304 270.684L127.308 270.698C127.564 271.61 130.834 283.072 137.097 296.771C143.409 310.577 153.315 327.916 167.179 338.384C176.006 345.05 181.618 358.763 184.845 373.585C187.967 387.927 188.425 401.208 188.49 404.684C188.587 409.892 192.89 413.5 197.5 413.5H311.5C316.11 413.5 320.413 409.892 320.51 404.684C320.575 401.208 321.033 387.927 324.155 373.585C327.382 358.763 332.994 345.05 341.821 338.384C355.685 327.916 365.591 310.577 371.903 296.771C378.163 283.077 381.4 271.73 381.659 270.811L381.78 270.363C382.317 268.147 396.103 209.288 354.173 158.412C334.174 134.146 309.67 122.06 290.311 116.047C280.626 113.04 272.168 111.531 266.093 110.773C263.051 110.393 260.596 110.2 258.869 110.102C258.005 110.053 257.323 110.027 256.839 110.014C256.597 110.007 256.404 110.004 256.264 110.002ZM253.013 126L252.949 126.001C252.881 126.002 252.763 126.004 252.596 126.008C252.263 126.017 251.739 126.036 251.039 126.076C249.639 126.156 247.543 126.318 244.889 126.649C239.574 127.313 232.063 128.648 223.435 131.328C206.169 136.69 184.674 147.354 167.174 168.588C130.854 212.657 142.149 263.919 142.743 266.483C143.101 267.731 146.096 277.974 151.648 290.118C157.711 303.378 166.264 317.644 176.821 325.616C190.578 336.004 197.142 354.853 200.478 370.181C202.798 380.837 203.778 390.88 204.194 397.5H304.806C305.221 390.88 306.202 380.837 308.521 370.181C311.858 354.853 318.422 336.004 332.179 325.616C342.736 317.644 351.289 303.378 357.352 290.118C362.904 277.974 365.899 267.731 366.257 266.483C366.257 266.483 367.601 260.398 368.005 250.644C368.802 231.39 365.934 197.84 341.826 168.588C324.326 147.354 302.831 136.69 285.565 131.328C278.368 129.092 271.948 127.793 266.932 127.038C265.934 126.888 264.992 126.759 264.111 126.649C261.457 126.318 259.361 126.156 257.961 126.076C257.261 126.036 256.736 126.017 256.404 126.008C256.237 126.004 256.119 126.002 256.051 126.001L255.987 126H253.013Z" clip-rule="evenodd"/><path fill="#2B9CDC" fill-rule="evenodd" d="M322.705 191.379C308.505 173.734 286.386 159.948 255.141 160.499C250.724 160.577 247.079 157.059 247.001 152.642C246.923 148.224 250.441 144.58 254.859 144.502C291.614 143.853 318.245 160.317 335.17 181.347C351.831 202.049 359.403 227.567 357.976 246.114C357.638 250.519 353.792 253.815 349.386 253.477C344.981 253.138 341.685 249.292 342.024 244.887C343.097 230.933 337.169 209.351 322.705 191.379Z" clip-rule="evenodd"/><path fill="#2B9CDC" fill-rule="evenodd" d="M42.9351 126.746C45.0079 122.845 49.8514 121.362 53.7532 123.435L101.753 148.935C105.655 151.008 107.138 155.851 105.065 159.753C102.992 163.655 98.1486 165.137 94.2468 163.065L46.2468 137.565C42.3449 135.492 40.8622 130.648 42.9351 126.746Z" clip-rule="evenodd"/><path fill="#2B9CDC" fill-rule="evenodd" d="M256 0.5C260.418 0.5 264 4.08172 264 8.5V63C264 67.4183 260.418 71 256 71C251.582 71 248 67.4183 248 63V8.5C248 4.08172 251.582 0.5 256 0.5ZM125.651 38.7855C129.359 36.3835 134.313 37.4425 136.715 41.1508L165.215 85.1508C167.617 88.8591 166.557 93.8125 162.849 96.2145C159.141 98.6165 154.187 97.5575 151.785 93.8492L123.285 49.8492C120.884 46.1409 121.943 41.1875 125.651 38.7855ZM389.971 40.8659C393.635 43.335 394.603 48.3069 392.134 51.9708L361.134 97.9708C358.665 101.635 353.693 102.603 350.029 100.134C346.365 97.665 345.397 92.6931 347.866 89.0292L378.866 43.0292C381.335 39.3652 386.307 38.3967 389.971 40.8659Z" clip-rule="evenodd"/><path fill="#2B9CDC" fill-rule="evenodd" d="M469.007 126.139C471.139 130.008 469.731 134.874 465.861 137.006L416.861 164.006C412.991 166.139 408.126 164.73 405.993 160.86C403.861 156.991 405.269 152.125 409.139 149.993L458.139 122.993C462.009 120.861 466.874 122.269 469.007 126.139Z" clip-rule="evenodd"/><path fill="#2B9CDC" fill-rule="evenodd" d="M202.274 439.5C200.155 440.022 198.874 441.77 199.01 444.016C199.103 445.552 199.559 446.383 199.944 446.825C200.273 447.202 200.908 447.711 202.237 448H260.024C260.024 448 260.025 448 260.025 456C260.025 464 260.024 464 260.024 464H201.75C201.194 464 200.598 463.958 199.971 463.853C195.209 463.053 190.979 460.89 187.882 457.337C184.811 453.814 183.31 449.447 183.039 444.984C182.403 434.484 189.538 425.434 199.947 423.652C200.593 423.541 201.196 423.5 201.749 423.5L260.024 423.5C260.024 423.5 260.025 423.5 260.025 431.5L260.024 423.5H309.276C309.828 423.5 310.432 423.541 311.078 423.652C321.486 425.434 328.622 434.484 327.985 444.984C327.715 449.447 326.213 453.814 323.142 457.337C320.046 460.89 315.816 463.053 311.053 463.853C310.426 463.958 309.83 464 309.275 464H260.024L260.025 456L260.024 448H308.788C310.116 447.711 310.751 447.202 311.081 446.825C311.465 446.383 311.922 445.552 312.015 444.016C312.151 441.77 310.87 440.022 308.751 439.5H260.025V432.642C260.025 439.5 260.025 439.5 260.025 439.5H202.274Z" clip-rule="evenodd"/><path fill="#2B9CDC" fill-rule="evenodd" d="M293.548 470.963C294.101 470.963 294.705 471.004 295.35 471.115C305.759 472.897 312.895 481.947 312.258 492.447C311.987 496.91 310.486 501.276 307.415 504.8C304.319 508.353 300.089 510.516 295.326 511.316C294.702 511.42 294.109 511.462 293.556 511.463C293.556 511.463 293.556 511.463 293.556 511.463C293.553 511.463 293.55 511.463 293.547 511.463L260.039 511.5C260.039 511.5 260.037 511.5 260.034 511.5C259.654 511.501 239.936 511.537 218.23 511.537C217.688 511.537 217.086 511.497 216.447 511.39C211.684 510.59 207.454 508.427 204.358 504.874C201.287 501.35 199.785 496.984 199.515 492.521C198.878 482.021 206.013 472.971 216.422 471.189C217.08 471.076 217.691 471.037 218.229 471.037C238.625 471.037 259.952 471 260.011 471L293.548 470.963ZM293.026 486.963L260.038 487C260.038 487 260.036 487 260.035 487C260.035 487 260.036 487 260.035 487C260.035 487 260.034 487 260.034 487C259.678 487 238.855 487.036 218.749 487.037C216.63 487.559 215.349 489.307 215.485 491.553C215.578 493.089 216.035 493.92 216.419 494.361C216.749 494.739 217.383 495.248 218.712 495.537C240.378 495.536 259.93 495.5 260.009 495.5L260.016 495.5L260.022 495.5L293.058 495.463C294.388 495.175 295.024 494.665 295.353 494.287C295.738 493.846 296.194 493.015 296.287 491.479C296.423 489.233 295.144 487.487 293.026 486.963Z" clip-rule="evenodd"/></svg>