<svg xmlns="http://www.w3.org/2000/svg" xmlns:xlink="http://www.w3.org/1999/xlink" width="284" height="32" version="1.1" viewBox="0 0 284 32"><link id="dark-mode" rel="stylesheet" type="text/css"/><style id="dark-mode-custom-style" type="text/css"/><title>BlackFull</title><desc>Created with Sketch.</desc><defs><path id="path-1" d="M69.7915244,24.0186134 L76.7915244,6.2686134 L79.5915244,6.2686134 L86.5665244,24.0186134 L82.9165244,24.0186134 L81.2915244,19.5936134 L75.0665244,19.5936134 L73.4415244,24.0186134 L69.7915244,24.0186134 Z M78.1915244,9.9936134 L75.6415244,17.1686134 L80.6665244,17.1686134 L78.1915244,9.9936134 Z M88.4665244,24.0186134 L88.4665244,6.2686134 L96.3165244,6.2686134 C97.1331952,6.2686134 97.8873543,6.43944502 98.5790244,6.7811134 C99.2706945,7.12278177 99.8665219,7.57277727 100.366524,8.1311134 C100.866527,8.68944952 101.25819,9.32277652 101.541524,10.0311134 C101.824859,10.7394503 101.966524,11.4519431 101.966524,12.1686134 C101.966524,13.3186191 101.679027,14.364442 101.104024,15.3061134 C100.529022,16.2477848 99.7498626,16.9269446 98.7665244,17.3436134 L102.941524,24.0186134 L99.0415244,24.0186134 L95.3165244,18.0686134 L91.9165244,18.0686134 L91.9165244,24.0186134 L88.4665244,24.0186134 Z M91.9165244,15.0436134 L96.2415244,15.0436134 C96.5581926,15.0436134 96.854023,14.9686142 97.1290244,14.8186134 C97.4040258,14.6686127 97.6415234,14.464448 97.8415244,14.2061134 C98.0415254,13.9477788 98.1998571,13.6436151 98.3165244,13.2936134 C98.4331916,12.9436116 98.4915244,12.5686154 98.4915244,12.1686134 C98.4915244,11.7519446 98.4248584,11.3686151 98.2915244,11.0186134 C98.1581904,10.6686117 97.9790255,10.364448 97.7540244,10.1061134 C97.5290233,9.84777877 97.2706925,9.64778077 96.9790244,9.5061134 C96.6873563,9.36444602 96.3915259,9.2936134 96.0915244,9.2936134 L91.9165244,9.2936134 L91.9165244,15.0436134 Z M104.516524,20.3936134 C104.749859,20.5602809 105.141522,20.7436124 105.691524,20.9436134 C106.241527,21.1436144 106.874854,21.2436134 107.591524,21.2436134 C108.291528,21.2436134 108.849856,21.1227813 109.266524,20.8811134 C109.683193,20.6394455 109.999857,20.2686159 110.216524,19.7686134 C110.433192,19.2686109 110.574857,18.6477838 110.641524,17.9061134 C110.708191,17.164443 110.741524,16.2936184 110.741524,15.2936134 L110.741524,6.2936134 L114.191524,6.2936134 L114.191524,15.2936134 C114.191524,16.6436202 114.120692,17.8727745 113.979024,18.9811134 C113.837357,20.0894523 113.53736,21.0352762 113.079024,21.8186134 C112.620689,22.6019506 111.958195,23.2102779 111.091524,23.6436134 C110.224853,24.0769489 109.058198,24.2936134 107.591524,24.2936134 C106.091517,24.2936134 104.808196,23.9269504 103.741524,23.1936134 L104.516524,20.3936134 Z M125.166524,21.0936134 C125.983195,21.0936134 126.670688,20.9269484 127.229024,20.5936134 C127.787361,20.2602784 128.237356,19.8269494 128.579024,19.2936134 C128.920693,18.7602774 129.162357,18.1477835 129.304024,17.4561134 C129.445692,16.7644433 129.516524,16.0519504 129.516524,15.3186134 L129.516524,6.2686134 L132.941524,6.2686134 L132.941524,15.3186134 C132.941524,16.5352861 132.795693,17.6769414 132.504024,18.7436134 C132.212356,19.8102854 131.754028,20.7436094 131.129024,21.5436134 C130.504021,22.3436174 129.699863,22.9769444 128.716524,23.4436134 C127.733186,23.9102824 126.558198,24.1436134 125.191524,24.1436134 C123.774851,24.1436134 122.570696,23.8977825 121.579024,23.4061134 C120.587353,22.9144443 119.783194,22.2644508 119.166524,21.4561134 C118.549855,20.647776 118.104026,19.7102854 117.829024,18.6436134 C117.554023,17.5769414 117.416524,16.4686191 117.416524,15.3186134 L117.416524,6.2686134 L120.866524,6.2686134 L120.866524,15.3186134 C120.866524,16.0686171 120.937357,16.7894433 121.079024,17.4811134 C121.220692,18.1727835 121.462356,18.7852774 121.804024,19.3186134 C122.145693,19.8519494 122.591522,20.2811118 123.141524,20.6061134 C123.691527,20.931115 124.36652,21.0936134 125.166524,21.0936134 Z M139.841524,12.6436134 L139.841524,24.0186134 L136.391524,24.0186134 L136.391524,6.2686134 L139.066524,6.2686134 L148.316524,17.9186134 L148.316524,6.2936134 L151.766524,6.2936134 L151.766524,24.0186134 L148.966524,24.0186134 L139.841524,12.6436134 Z M161.441524,24.0186134 L161.441524,6.2936134 L164.891524,6.2936134 L164.891524,14.9436134 L172.566524,6.2686134 L176.141524,6.2686134 L169.341524,14.1436134 L176.566524,24.0186134 L172.916524,24.0186134 L167.266524,16.0936134 L164.891524,18.6686134 L164.891524,24.0186134 L161.441524,24.0186134 Z M176.316524,24.0186134 L183.316524,6.2686134 L186.116524,6.2686134 L193.091524,24.0186134 L189.441524,24.0186134 L187.816524,19.5936134 L181.591524,19.5936134 L179.966524,24.0186134 L176.316524,24.0186134 Z M184.716524,9.9936134 L182.166524,17.1686134 L187.191524,17.1686134 L184.716524,9.9936134 Z M194.991524,24.0186134 L194.991524,6.2686134 L198.441524,6.2686134 L198.441524,20.9936134 L207.491524,20.9936134 L207.491524,24.0186134 L194.991524,24.0186134 Z M224.016524,19.4436134 C224.016524,20.1936172 223.866526,20.8519439 223.566524,21.4186134 C223.266523,21.9852829 222.854027,22.4602782 222.329024,22.8436134 C221.804022,23.2269487 221.195695,23.5186124 220.504024,23.7186134 C219.812354,23.9186144 219.074862,24.0186134 218.291524,24.0186134 L209.716524,24.0186134 L209.716524,6.2686134 L219.216524,6.2686134 C219.833194,6.2686134 220.391522,6.4019454 220.891524,6.6686134 C221.391527,6.9352814 221.816523,7.28111128 222.166524,7.7061134 C222.516526,8.13111552 222.787357,8.61444402 222.979024,9.1561134 C223.170692,9.69778278 223.266524,10.2436106 223.266524,10.7936134 C223.266524,11.6602844 223.04986,12.4727763 222.616524,13.2311134 C222.183189,13.9894505 221.549862,14.5519449 220.716524,14.9186134 C221.733196,15.2186149 222.537355,15.7561095 223.129024,16.5311134 C223.720694,17.3061173 224.016524,18.2769409 224.016524,19.4436134 Z M220.541524,18.7936134 C220.541524,18.4769451 220.487358,18.1727815 220.379024,17.8811134 C220.270691,17.5894453 220.124859,17.3352812 219.941524,17.1186134 C219.75819,16.9019456 219.541526,16.731114 219.291524,16.6061134 C219.041523,16.4811128 218.766526,16.4186134 218.466524,16.4186134 L213.166524,16.4186134 L213.166524,21.0936134 L218.291524,21.0936134 C218.608193,21.0936134 218.904023,21.0352806 219.179024,20.9186134 C219.454026,20.8019461 219.691523,20.6394478 219.891524,20.4311134 C220.091525,20.222779 220.249857,19.9769481 220.366524,19.6936134 C220.483192,19.4102787 220.541524,19.1102816 220.541524,18.7936134 Z M213.166524,9.2186134 L213.166524,13.6936134 L217.766524,13.6936134 C218.349861,13.6936134 218.845689,13.4936154 219.254024,13.0936134 C219.66236,12.6936114 219.866524,12.1436169 219.866524,11.4436134 C219.866524,10.7602766 219.679026,10.2186154 219.304024,9.8186134 C218.929023,9.4186114 218.466527,9.2186134 217.916524,9.2186134 L213.166524,9.2186134 Z M234.191524,21.0936134 C235.008195,21.0936134 235.695688,20.9269484 236.254024,20.5936134 C236.812361,20.2602784 237.262356,19.8269494 237.604024,19.2936134 C237.945693,18.7602774 238.187357,18.1477835 238.329024,17.4561134 C238.470692,16.7644433 238.541524,16.0519504 238.541524,15.3186134 L238.541524,6.2686134 L241.966524,6.2686134 L241.966524,15.3186134 C241.966524,16.5352861 241.820693,17.6769414 241.529024,18.7436134 C241.237356,19.8102854 240.779028,20.7436094 240.154024,21.5436134 C239.529021,22.3436174 238.724863,22.9769444 237.741524,23.4436134 C236.758186,23.9102824 235.583198,24.1436134 234.216524,24.1436134 C232.799851,24.1436134 231.595696,23.8977825 230.604024,23.4061134 C229.612353,22.9144443 228.808194,22.2644508 228.191524,21.4561134 C227.574855,20.647776 227.129026,19.7102854 226.854024,18.6436134 C226.579023,17.5769414 226.441524,16.4686191 226.441524,15.3186134 L226.441524,6.2686134 L229.891524,6.2686134 L229.891524,15.3186134 C229.891524,16.0686171 229.962357,16.7894433 230.104024,17.4811134 C230.245692,18.1727835 230.487356,18.7852774 230.829024,19.3186134 C231.170693,19.8519494 231.616522,20.2811118 232.166524,20.6061134 C232.716527,20.931115 233.39152,21.0936134 234.191524,21.0936134 Z M245.416524,24.0186134 L245.416524,6.2686134 L253.266524,6.2686134 C254.083195,6.2686134 254.837354,6.43944502 255.529024,6.7811134 C256.220695,7.12278177 256.816522,7.57277727 257.316524,8.1311134 C257.816527,8.68944952 258.20819,9.32277652 258.491524,10.0311134 C258.774859,10.7394503 258.916524,11.4519431 258.916524,12.1686134 C258.916524,13.3186191 258.629027,14.364442 258.054024,15.3061134 C257.479022,16.2477848 256.699863,16.9269446 255.716524,17.3436134 L259.891524,24.0186134 L255.991524,24.0186134 L252.266524,18.0686134 L248.866524,18.0686134 L248.866524,24.0186134 L245.416524,24.0186134 Z M248.866524,15.0436134 L253.191524,15.0436134 C253.508193,15.0436134 253.804023,14.9686142 254.079024,14.8186134 C254.354026,14.6686127 254.591523,14.464448 254.791524,14.2061134 C254.991525,13.9477788 255.149857,13.6436151 255.266524,13.2936134 C255.383192,12.9436116 255.441524,12.5686154 255.441524,12.1686134 C255.441524,11.7519446 255.374858,11.3686151 255.241524,11.0186134 C255.10819,10.6686117 254.929026,10.364448 254.704024,10.1061134 C254.479023,9.84777877 254.220693,9.64778077 253.929024,9.5061134 C253.637356,9.36444602 253.341526,9.2936134 253.041524,9.2936134 L248.866524,9.2936134 L248.866524,15.0436134 Z M274.166524,22.0186134 C272.799851,23.4352872 271.224867,24.1436134 269.441524,24.1436134 C268.308185,24.1436134 267.241529,23.8936159 266.241524,23.3936134 C265.241519,22.8936109 264.370695,22.2227843 263.629024,21.3811134 C262.887354,20.5394425 262.304027,19.5686189 261.879024,18.4686134 C261.454022,17.3686079 261.241524,16.2269527 261.241524,15.0436134 C261.241524,13.8269406 261.454022,12.6811188 261.879024,11.6061134 C262.304027,10.531108 262.895687,9.58945078 263.654024,8.7811134 C264.412362,7.97277603 265.304019,7.33111578 266.329024,6.8561134 C267.35403,6.38111102 268.466518,6.1436134 269.666524,6.1436134 C271.283199,6.1436134 272.666519,6.4936099 273.816524,7.1936134 C274.96653,7.8936169 275.833188,8.83527415 276.416524,10.0186134 L273.841524,11.9186134 C273.408189,11.0352756 272.812362,10.3602824 272.054024,9.8936134 C271.295687,9.4269444 270.458196,9.1936134 269.541524,9.1936134 C268.808187,9.1936134 268.145694,9.35194515 267.554024,9.6686134 C266.962355,9.98528165 266.458193,10.4186106 266.041524,10.9686134 C265.624856,11.5186161 265.299859,12.1519431 265.066524,12.8686134 C264.83319,13.5852836 264.716524,14.3436094 264.716524,15.1436134 C264.716524,15.9769509 264.841523,16.7561098 265.091524,17.4811134 C265.341526,18.206117 265.691522,18.8352774 266.141524,19.3686134 C266.591527,19.9019494 267.120688,20.3227785 267.729024,20.6311134 C268.337361,20.9394483 269.008187,21.0936134 269.741524,21.0936134 C271.374866,21.0936134 272.849851,20.2852881 274.166524,18.6686134 L274.166524,17.4186134 L270.591524,17.4186134 L270.591524,14.8936134 L277.016524,14.8936134 L277.016524,24.0186134 L274.166524,24.0186134 L274.166524,22.0186134 Z M279.991524,24.0186134 L279.991524,6.2936134 L283.441524,6.2936134 L283.441524,24.0186134 L279.991524,24.0186134 Z"/></defs><g id="Page-1" fill="none" fill-rule="evenodd" stroke="none" stroke-width="1"><g id="BlackFull" fill="#000"><path id="Shape" fill-rule="nonzero" d="M30.3790459,31.293 C24.1866414,31.2718728 18.6894566,27.3247745 16.6900459,21.464 C15.8460459,21.423 15.0250459,21.35 14.2020459,21.25 C13.5750459,21.191 12.9210459,21.101 12.2770459,20.983 C8.20090289,20.2874002 4.33245161,18.687192 0.956045922,16.3 L0.701045922,16.125 C0.290895537,15.7815795 0.039655445,15.2848833 0.00604592213,14.751 C-0.0193112457,14.4338898 0.0353602673,14.1154884 0.165045922,13.825 C0.45459545,13.1411494 1.10328176,12.6775261 1.84404592,12.625 C2.34264644,12.5778968 2.83968028,12.7295586 3.22704592,13.047 L3.51104592,13.314 C5.20662799,14.865677 7.21505965,16.035955 9.40104592,16.746 L9.61804592,16.805 C10.1034328,16.9600119 10.5964058,17.0901807 11.0950459,17.195 L11.1130459,17.195 L11.2740459,17.233 C12.9349107,17.6333411 14.6182561,17.9338788 16.3150459,18.133 C16.3150459,18.121 16.3150459,18.112 16.3150459,18.101 C16.9313044,14.348945 18.9961214,10.9888593 22.0650459,8.744 L22.2730459,8.597 C24.2668314,7.18957829 26.5845221,6.30990853 29.0100459,6.04 C29.3030459,6.005 29.5990459,5.984 29.8890459,5.967 L31.2050459,5.967 C33.7780459,5.944 36.4390459,5.826 39.1530459,5.618 L40.4950459,5.501 C48.9130595,4.74518146 57.2229524,3.0695213 65.2760459,0.504 L65.2820459,0.504 L65.3730459,0.797 L65.4110459,0.779 L65.3500459,0.481 L66.9780459,0 L66.3890459,1.7 C62.5865989,12.6512919 54.7062396,21.7137052 44.3890459,27 C43.9490459,27.229 43.4950459,27.451 43.0410459,27.665 C40.2254019,28.999434 37.2789808,30.0383223 34.2490459,30.765 L34.0170459,30.797 C33.772779,30.87843 33.5231868,30.9429163 33.2700459,30.99 L33.0700459,31.028 C32.9900777,31.0472019 32.9088874,31.0609007 32.8270459,31.069 L32.3170459,31.148 C32.1970459,31.169 32.0740459,31.189 31.9510459,31.198 C31.4291888,31.2585188 30.9043932,31.2902335 30.3790459,31.293 Z M18.6330459,21.525 C21.2948034,25.6372886 26.053004,27.8909285 30.9210459,27.345 L31.7010459,27.237 C31.9740459,27.193 32.0820459,27.173 32.1900459,27.146 C35.1778513,26.6133025 38.1010573,25.7666085 40.9110459,24.62 C41.8020459,24.265 42.6870459,23.876 43.5430459,23.451 C43.7430459,23.357 43.9240459,23.269 44.1030459,23.176 L44.1180459,23.167 C52.7817233,18.81926 59.7468951,11.7048748 63.9100459,2.951 C60.6250459,4.159 57.2500459,5.225 53.8500459,6.125 L52.6310459,6.425 C49.2080459,7.325 45.4890459,8.092 41.7560459,8.682 C41.5480459,8.72 41.3340459,8.752 41.1080459,8.776 C39.9420459,8.961 38.7520459,9.122 37.5500459,9.26 C35.1940459,9.553 32.7760459,9.77 30.3700459,9.911 C30.0100459,9.926 29.6520459,9.946 29.3000459,9.987 C24.4820634,10.5159645 20.3620976,13.6895612 18.6210459,18.213 C18.6030459,18.254 18.5890459,18.295 18.5710459,18.336 C21.3132655,18.5162166 24.0663495,18.4385423 26.7940459,18.104 C31.8145036,17.4993946 36.6907768,16.022536 41.2030459,13.74 C41.6570459,13.503 41.9910459,13.33 42.3220459,13.148 C42.5100459,13.048 42.6820459,12.948 42.8550459,12.848 C43.0280459,12.748 43.1690459,12.678 43.3090459,12.593 C44.1323793,12.115 44.9383793,11.615 45.7270459,11.093 C45.9391155,10.8719191 46.2629621,10.7993348 46.5491064,10.9087502 C46.8352506,11.0181655 47.0280478,11.2883032 47.0385076,11.5944744 C47.0489674,11.9006457 46.8750558,12.1833113 46.5970459,12.312 C46.2117126,12.6073333 45.8083793,12.905 45.3870459,13.205 C44.9783793,13.495 44.5660459,13.7766667 44.1500459,14.05 L43.6720459,14.364 C43.5020459,14.475 43.3410459,14.575 43.1720459,14.672 C42.8410459,14.886 42.4770459,15.106 42.1110459,15.314 C35.003299,19.4996201 26.8807276,21.6484101 18.6330459,21.525 Z"/><g id="ARJUN-KALBURGI"><use xlink:href="#path-1"/><use xlink:href="#path-1"/></g></g></g></svg>