<svg xmlns="http://www.w3.org/2000/svg" width="512" height="512" fill="none" viewBox="0 0 512 512"><g clip-path="url(#clip0_652_1971)"><path fill="#2B9CDC" d="M384.872 34.8859C297.786 -15.9269 185.595 13.5811 134.781 100.67C100.592 159.265 102.012 233.146 138.033 290.396L126.76 313.322C124.53 317.851 126.345 323.396 130.935 325.557C135.464 327.786 140.943 325.918 143.172 321.388L156.735 293.803C158.177 290.871 157.942 287.385 156.117 284.677C121.168 232.622 118.996 164.007 150.575 109.886C196.305 31.5108 297.278 4.94766 375.657 50.6799C454.035 96.4122 480.593 197.387 434.863 275.762C401.138 333.561 336.512 365.011 270.216 355.903C266.785 355.432 263.383 356.94 261.426 359.799L229.939 405.87C227.092 410.04 228.161 415.729 232.331 418.575C232.514 418.703 232.699 418.821 232.888 418.931C236.995 421.328 242.315 420.172 245.037 416.19L273.386 374.707C345.041 382.331 414.151 347.544 450.657 284.979C501.471 197.888 471.958 85.6986 384.872 34.8859Z"/><path fill="#2B9CDC" d="M221.96 427.028L133.124 343.437C129.458 339.985 123.657 340.156 120.194 343.832C116.735 347.51 116.91 353.296 120.588 356.755L209.424 440.346C209.941 440.834 210.503 441.244 211.093 441.588C214.687 443.685 219.377 443.114 222.354 439.951C225.813 436.273 225.639 430.486 221.96 427.028Z"/><path fill="#2B9CDC" d="M203.53 458.616L114.693 375.025C111.027 371.573 105.227 371.744 101.764 375.42C98.3045 379.098 98.4791 384.884 102.157 388.343L190.994 471.934C191.51 472.422 192.072 472.832 192.662 473.176C196.256 475.273 200.946 474.702 203.923 471.539C207.382 467.862 207.208 462.075 203.53 458.616Z"/><path fill="#2B9CDC" d="M185.099 490.204L96.2625 406.613C92.6011 403.153 86.8005 403.324 83.3327 407.007C79.8737 410.685 80.0483 416.472 83.7263 419.931L172.563 503.522C173.079 504.009 173.641 504.42 174.231 504.764C177.825 506.861 182.515 506.29 185.493 503.127C188.952 499.449 188.778 493.662 185.099 490.204Z"/></g><defs><clipPath id="clip0_652_1971"><rect width="512" height="512" fill="#fff"/></clipPath></defs></svg>